<?xml version="1.0" encoding="UTF-8"?>
<svg data-bbox="-37.5 -22.5 450 270" height="300" viewBox="0 0 375 225" width="500" xmlns="http://www.w3.org/2000/svg" data-type="color">
    <g>
        <path d="M122.702 124.396c1.02 1.563 2.07 2.825 3.156 3.782 1.082.949 2.477 1.761 4.188 2.437v2.047c-4.762-.207-10.07-.313-15.922-.313-4.48 0-8.797.106-12.953.313v-2.047c1.906-.133 3.281-.336 4.125-.61.851-.269 1.281-.741 1.281-1.421 0-.54-.371-1.39-1.11-2.547l-14.796-23.969c-1.356-2.176-2.496-3.64-3.422-4.39-.918-.75-2.156-1.192-3.719-1.328v25.5c0 2.585.188 4.453.563 5.609.375 1.156 1.07 1.937 2.093 2.344 1.02.406 2.688.68 5 .812v2.047c-3.68-.207-8.812-.313-15.406-.313-7.273 0-12.64.106-16.11.313v-2.047c2.239-.133 3.884-.406 4.938-.812 1.063-.407 1.774-1.188 2.14-2.344.376-1.156.563-3.024.563-5.61V71.272c0-2.582-.187-4.453-.562-5.609-.367-1.156-1.078-1.938-2.14-2.344-1.055-.414-2.7-.691-4.938-.828V60.46c3.468.2 8.836.297 16.11.297 6.593 0 11.726-.098 15.405-.297v2.031c-2.312.137-3.98.414-5 .828-1.023.407-1.718 1.188-2.093 2.344s-.563 3.027-.563 5.61V94.21c2.719-.133 5.195-.945 7.438-2.438 2.25-1.5 4.8-3.879 7.656-7.14l6.016-7.25c3.132-3.602 4.703-6.766 4.703-9.485 0-1.625-.668-2.91-2-3.859-1.325-.957-3.172-1.504-5.547-1.64V60.46c4.957.2 9.988.297 15.093.297 3.938 0 7.13-.098 9.579-.297v1.937c-5.438 1.293-10.368 4.555-14.782 9.782L98.936 87.38Zm0 0" fill="#004aad" data-color="2"/>
        <path d="M163.695 94.725c8.832.68 15.32 2.718 19.469 6.125 4.145 3.398 6.219 7.406 6.219 12.03 0 6.325-2.485 11.204-7.453 14.641-4.961 3.43-11.856 5.141-20.688 5.141-1.969 0-3.637-.035-5-.11a445.45 445.45 0 0 0-13.156-.202c-7 0-12.235.105-15.703.312v-2.047c2.238-.133 3.883-.406 4.937-.812 1.063-.407 1.774-1.188 2.14-2.344.376-1.156.563-3.024.563-5.61V71.272c0-2.582-.187-4.453-.562-5.609-.367-1.156-1.078-1.938-2.14-2.344-1.055-.414-2.7-.691-4.938-.828V60.46c3.468.2 8.633.297 15.5.297l11.328-.094a91.32 91.32 0 0 1 4.687-.11c8.157 0 14.391 1.465 18.703 4.391 4.32 2.93 6.485 6.805 6.485 11.625 0 3.95-1.719 7.621-5.156 11.016-3.43 3.398-8.508 5.71-15.235 6.937ZM157.57 62.49c-1.836 0-3.18.242-4.031.719-.844.48-1.438 1.336-1.781 2.562-.344 1.22-.516 3.055-.516 5.5v23.047h4.39c4.415 0 7.509-1.508 9.282-4.531 1.77-3.031 2.656-7.063 2.656-12.094 0-5.101-.804-8.91-2.406-11.422-1.594-2.52-4.125-3.78-7.594-3.78Zm.719 67.828c9.445 0 14.172-5.945 14.172-17.844 0-5.374-1.36-9.453-4.078-12.234-2.719-2.789-7.008-4.187-12.86-4.187h-4.28v25.797c0 2.449.171 4.25.515 5.406.343 1.156 1.004 1.96 1.984 2.406.988.438 2.504.656 4.547.656Zm0 0" fill="#004aad" data-color="2"/>
        <path d="M227.124 94.725c8.832.68 15.32 2.718 19.469 6.125 4.145 3.398 6.219 7.406 6.219 12.03 0 6.325-2.485 11.204-7.453 14.641-4.961 3.43-11.856 5.141-20.688 5.141-1.969 0-3.637-.035-5-.11a445.45 445.45 0 0 0-13.156-.202c-7 0-12.234.105-15.703.312v-2.047c2.238-.133 3.883-.406 4.937-.812 1.063-.407 1.774-1.188 2.14-2.344.376-1.156.563-3.024.563-5.61V71.272c0-2.582-.187-4.453-.562-5.609-.367-1.156-1.078-1.938-2.14-2.344-1.055-.414-2.7-.691-4.938-.828V60.46c3.468.2 8.633.297 15.5.297l11.328-.094a91.32 91.32 0 0 1 4.687-.11c8.157 0 14.391 1.465 18.703 4.391 4.32 2.93 6.485 6.805 6.485 11.625 0 3.95-1.719 7.621-5.156 11.016-3.43 3.398-8.508 5.71-15.235 6.937ZM221 62.49c-1.836 0-3.18.242-4.031.719-.844.48-1.438 1.336-1.781 2.562-.344 1.22-.516 3.055-.516 5.5v23.047h4.39c4.415 0 7.509-1.508 9.282-4.531 1.77-3.031 2.656-7.063 2.656-12.094 0-5.101-.804-8.91-2.406-11.422-1.594-2.52-4.125-3.78-7.594-3.78Zm.719 67.828c9.445 0 14.172-5.945 14.172-17.844 0-5.374-1.36-9.453-4.078-12.234-2.719-2.789-7.008-4.187-12.86-4.187h-4.28v25.797c0 2.449.171 4.25.515 5.406.343 1.156 1.004 1.96 1.984 2.406.988.438 2.504.656 4.547.656Zm0 0" fill="#004aad" data-color="2"/>
        <path d="M313.086 124.1c.882 2.242 1.906 3.87 3.062 4.89 1.156 1.024 2.273 1.563 3.36 1.625v2.047c-4.075-.207-9.243-.313-15.5-.313-6.938 0-12.106.106-15.5.313v-2.047c2.581-.133 4.413-.453 5.5-.953 1.093-.508 1.64-1.414 1.64-2.719 0-1.218-.406-2.847-1.219-4.89l-6.125-16.72H266.07l-2.656 7.032c-1.899 4.899-2.844 8.672-2.844 11.328 0 2.512.758 4.262 2.281 5.25 1.531.98 3.79 1.54 6.781 1.672v2.047c-4.617-.207-8.828-.313-12.64-.313-3.125 0-5.711.106-7.75.313v-2.047c3.332-.601 6.254-4.172 8.765-10.703l23.266-59.656c.738.062 1.926.094 3.563.094 1.632 0 2.789-.032 3.468-.094Zm-25.5-20.813-10.094-27.531-10.61 27.531Zm0 0" fill="#004aad" data-color="2"/>
        <path d="M65.402 94.714c-.082-.281-.406-.445-.73-.363-3.047 1.054-6.82 2.597-10.473 4.14-5.035 2.07-10.27 4.22-12.016 4.22-.363 0-.527-.122-.566-.204-.488-.566-.082-2.352.203-3.812.324-1.504.649-2.965.363-3.938-.285-.934-1.015-1.785-1.664-2.355l.082-.04c4.059-1.503 9.743-4.75 13.395-10.312a.576.576 0 0 0-.164-.77c-.281-.164-.649-.12-.813.165-3.691 5.64-9.66 8.804-13.515 10.144a.866.866 0 0 0-.242-.16c3.734-4.871 7.226-9.254 7.304-9.336.203-.246.164-.61-.078-.773a.58.58 0 0 0-.812.082c-.286.324-3.856 4.789-7.59 9.66-.774-.082-1.828.082-2.762 1.136-.527.61.04 1.22.61 1.258h.324c-2.84 3.735-5.52 7.348-6.657 9.254a.545.545 0 0 0 .204.774c.203.203.648.039.769-.164 1.219-2.028 4.223-6.086 7.309-10.106.16-.039.363-.082 1.379-.406.609.488 1.582 1.379 1.828 2.234.199.73-.082 2.11-.368 3.406-.445 1.95-.812 3.778 0 4.793.325.403.813.606 1.461.606 1.989 0 6.82-1.988 12.422-4.3 3.653-1.544 7.426-3.087 10.43-4.102.324-.122.488-.446.367-.73Zm0 0" fill="#ff66c4" data-color="3"/>
        <path d="M86.625 94.757c-.125-.285-.45-.445-.73-.324-.329.12-2.356.851-2.56.933-6.98 2.477-11.405 2.028-13.515 1.461 1.297-1.828 1.582-4.547.04-6.293-1.258-1.543-3.938-1.175-4.91.528-.731 1.015-.528 2.355-.165 3.492-1.219 1.176-2.516 2.394-3.207 4.02-.445.933.406 2.027 1.422 2.027 2.312.164 4.383-1.219 5.926-2.801l.039-.04c.976.325 2.476.65 4.59.65 2.312 0 5.273-.368 9.007-1.583.125-.043 3.696-1.3 3.735-1.34.285-.082.449-.406.328-.73Zm-16.93-1.95c.367 1.34-.363 2.56-1.093 3.614-1.016-.445-1.704-.976-2.274-1.625.934-1.055.285-1.418-.648-.934-.57-3.53 3.57-4.343 4.015-1.054Zm-7.183 6.536c.609-1.5 1.746-2.68 2.882-3.816a14.9 14.9 0 0 0 2.395 1.828c-1.46 1.257-3.29 2.394-5.277 1.988Zm0 0" fill="#ff66c4" data-color="3"/>
        <path d="M109.47 94.714a.6.6 0 0 0-.77-.324c-1.582.57-3.124 1.137-4.628 1.664v-.04c-7.711 2.802-16.559 5.196-17.414 4.345-.243-.61.488-1.543 1.097-2.317.567-.687 1.38-1.62.895-2.472a1.983 1.983 0 0 0-.813-.813c1.055-.852 2.11-1.785 2.598-3.086.242-.61.082-1.5-.649-1.703-1.097-.164-1.949.687-2.64 1.418-.692.855-1.461 1.789-1.461 2.926v.039c.367 1.136 1.582.894 1.906 1.746.203.566-5.113 5.844-.039 5.558 1.422-.078 3.856-.445 8.16-1.703 2.758-.812 5.52-1.707 7.184-2.273 3.531-1.219 6.168-2.192 6.21-2.234.325-.079.446-.446.364-.73Zm-22.687-.648c.566-1.258 1.46-2.356 2.675-3.043-.484 1.297-1.539 2.273-2.675 3.043Zm0 0" fill="#ff66c4" data-color="3"/>
        <path d="M129.803 94.757c-.12-.285-.449-.445-.73-.324-.285.078-3.41 1.215-4.668 1.62-3.652 1.34-7.387 2.56-11.285 2.884-1.34.039-2.883 0-3.977-.973-.61-.73 0-1.746.242-2.52 2.07-.648 4.223-1.417 5.926-2.878.528-.489 1.055-1.22.813-2.032-.406-.933-1.625-.933-2.438-.648-1.906.648-3.57 2.027-4.625 3.734-.894 1.34-2.191 4.098-.57 5.356 2.273 1.707 5.277 1.136 7.715.691 1.703-.324 3.367-.77 5.031-1.258 1.625-.648 8.078-2.761 8.242-2.922.281-.082.446-.445.324-.73ZM115.19 90.82c-1.176 1.703-3.168 2.476-5.035 3.125 1.262-1.582 2.965-3.043 5.035-3.125Zm0 0" fill="#ff66c4" data-color="3"/>
        <path d="M154.11 94.757c-.082-.324-.445-.445-.73-.367-.688.285-2.028.73-2.028.73-4.789 1.867-12.097 4.14-13.316 3.532-.078-.04-.078-.079-.078-.122-.043-.445.445-1.296 1.257-2.312.852-.852 1.34-1.422 2.555-2.922.246-.57-.77-.652-1.094-.691h-.57c.082-1.137-.73-2.07-1.824-2.313-2.598-.648-5.117.852-7.145 2.352-1.218.976-2.636 1.867-3.289 3.332-.324 1.011 1.016 1.336 1.746 1.054 3.41-.855 6.657-2.19 10.188-3.085-.649.609-1.988 2.273-1.988 2.273-.649.934-1.055 1.824-.973 2.477.039.406.281.77.687.972.246.121.653.203 1.137.203 3.004 0 9.582-2.355 12.258-3.367 1.746-.61 2.844-1.016 2.883-1.016a.591.591 0 0 0 .367-.445c0-.125 0-.203-.043-.285Zm-15.3-1.746c-3.29.852-6.415 2.152-9.704 2.922 1.79-1.824 3.899-3.488 6.332-4.383 1.219-.445 4.059-.527 3.371 1.46Zm0 0" fill="#ff66c4" data-color="3"/>
        <path d="M219.818 94.714c-.125-.281-.45-.445-.73-.324-5.118 2.234-9.462 2.64-13.317 3.004-1.461.164-2.84.285-4.14.488l.202-.242c.73-1.219 1.586-2.356 2.317-3.531.605-1.059 1.34-2.641.605-3.735-.281-.488-.851-.812-1.539-.933-1.058-.204-1.992-.043-2.926.039h-.039c1.22-.77 2.395-1.785 3.493-2.72.527-.448.972-1.015 1.378-1.503.446-.61.528-1.176.204-1.664-.446-.73-1.258-.484-1.625-.406-.73.203-1.5.488-2.274.855-2.879 1.336-5.476 3.164-7.629 4.746-2.883 2.114-5.601 4.63-7.996 6.86a2.336 2.336 0 0 1-.367.328c.125-.164.246-.328.367-.489.528-.73 1.055-1.46 1.621-2.19 3.25-4.06 7.469-7.552 13.031-11.368 1.422-.973.407-1.746-.648-.89-1.625 1.257-3.289 2.273-4.832 3.488-4.828 3.695-8.562 7.753-11.445 12.46-.285.368-.73 1.137-.285 1.504.527.446 1.218-.246 1.582-.527 1.625-1.504 3.25-2.883 4.793-4.344 3.691-3.289 7.14-5.804 10.593-7.71.89-.489 1.785-.895 3.207-1.505.325-.12.606-.242.973-.12-.04.769-2.152 2.355-2.637 2.718-1.34.977-2.68 1.95-3.98 2.883-.61.445-1.219.852-1.824 1.297-.246.203-.934.73-.61 1.058.363.364.688.243 1.016 0 1.094-.773 2.394-1.3 4.137-1.664.773-.164 1.664-.328 2.558-.082 1.582.485.649 2.313.082 3.164-.851 1.461-1.785 2.641-2.597 3.856-.247.328-.528.57-.977.691-1.945.489-3.773 1.301-5.52 2.356-.812.484-1.62 1.136-2.554 1.945-1.098 1.219-2.114 3.574.406 3.574.445-.039.89-.164 1.297-.367.73-.406 1.34-.77 1.906-1.176a30.428 30.428 0 0 0 4.465-4.18l.894-1.054c1.665-.406 3.493-.57 5.399-.774 3.937-.363 8.441-.77 13.68-3.085a.55.55 0 0 0 .285-.73Zm-26.59 9.742c-.363.203-2.23 1.055-1.742-.082.605-1.094 1.539-1.945 2.515-2.515 1.137-.61 2.313-1.137 3.45-1.704l1.097-.488c-1.789 2.153-3.492 3.695-5.32 4.79Zm0 0" fill="#ff66c4" data-color="3"/>
        <path d="M240.226 94.757c-.12-.285-.449-.445-.73-.324-.285.078-3.41 1.215-4.668 1.62-3.652 1.34-7.387 2.56-11.285 2.884-1.34.039-2.883 0-3.977-.973-.61-.73 0-1.746.242-2.52 2.07-.648 4.223-1.417 5.926-2.878.528-.489 1.055-1.22.813-2.032-.406-.933-1.625-.933-2.438-.648-1.906.648-3.57 2.027-4.625 3.734-.894 1.34-2.191 4.098-.57 5.356 2.273 1.707 5.277 1.136 7.715.691 1.703-.324 3.367-.77 5.031-1.258 1.625-.648 8.078-2.761 8.242-2.922.281-.082.446-.445.324-.73Zm-14.613-3.937c-1.176 1.703-3.168 2.476-5.035 3.125 1.262-1.582 2.965-3.043 5.035-3.125Zm0 0" fill="#ff66c4" data-color="3"/>
        <path d="M264.534 94.757c-.082-.324-.445-.445-.73-.367-.688.285-2.028.73-2.028.73-4.789 1.867-12.097 4.14-13.316 3.532-.078-.04-.078-.079-.078-.122-.043-.445.445-1.296 1.257-2.312.852-.852 1.34-1.422 2.555-2.922.246-.57-.77-.652-1.094-.691h-.57c.082-1.137-.73-2.07-1.824-2.313-2.598-.648-5.117.852-7.145 2.352-1.218.976-2.636 1.867-3.289 3.332-.324 1.011 1.016 1.336 1.746 1.054 3.41-.855 6.657-2.19 10.188-3.085-.649.609-1.988 2.273-1.988 2.273-.649.934-1.055 1.824-.973 2.477.039.406.281.77.687.972.247.121.653.203 1.137.203 3.004 0 9.582-2.355 12.258-3.367 1.746-.61 2.844-1.016 2.883-1.016a.591.591 0 0 0 .367-.445c0-.125 0-.203-.043-.285Zm-15.3-1.746c-3.29.852-6.415 2.152-9.704 2.922 1.79-1.824 3.899-3.488 6.332-4.383 1.219-.445 4.059-.527 3.371 1.46Zm0 0" fill="#ff66c4" data-color="3"/>
        <path d="M292.538 94.714a.604.604 0 0 0-.773-.324c-2.88 1.055-8.074 2.844-8.117 2.844-5.438 1.703-11.813 3.164-12.989 2.675.164-.687 1.707-2.84 3.207-4.625.04 0 .489-.57.489-.773 0-.934-1.055-.89-1.707-.688-3.614.891-6.817 2.758-10.391 3.735 1.625-1.867 3.492-3.492 5.52-4.953.367-.813-.61-1.016-1.094-.61-1.95 1.301-3.653 3.004-5.238 4.711-.364.446-.973.973-.649 1.621.367.774 1.34.368 1.988.285 3.371-.933 6.454-2.636 9.825-3.613-3.696 4.508-3.168 5.278-2.965 5.563.246.324.652.566 1.746.566 1.137 0 3.004-.242 6.09-1.016.687-.16 4.015-1.011 6.617-1.824 4.465-1.379 8.035-2.8 8.074-2.843.324-.079.45-.446.367-.73Zm0 0" fill="#ff66c4" data-color="3"/>
        <path d="M320.213 94.757c-.082-.285-.406-.445-.73-.324-14.125 4.949-17.414 5.68-24.028 6.492-.894 0-5.035.488-4.547-1.621.243-1.34 1.825-3.98 1.825-3.98a46.914 46.914 0 0 0 2.925-1.786c2.516-1.664 4.91-3.531 7.102-5.64h.04l5.6.28h.044c.28 0 .527-.241.566-.566 0-.324-.242-.566-.566-.609l-4.586-.203c.73-1.016 1.824-2.07 1.62-3.45-.241-1.097-1.62-1.015-2.433-.69-2.152.85-3.816 2.558-5.441 4.14-1.621.121-3.246.121-4.871.445-.649 0-.934.61-.934 1.22 1.543-.161 3.086-.364 4.629-.446a50.957 50.957 0 0 0-4.832 6.574c-.973 1.625-1.785 3.004-1.867 4.914-.078 1.137.812 2.191 1.949 2.395 4.871 1.378 17.09-2.68 16.316-2.317 5.97-1.906 11.856-4.058 11.895-4.097.285-.083.445-.446.324-.731Zm-15.707-11.246c-.45 1.262-1.3 2.273-2.191 3.207 0 .043-.043.043-.043.043-1.012-.043-1.989-.043-2.961-.043 1.5-1.34 3.043-2.922 5.195-3.207Zm-6.414 4.426c1.016 0 1.988-.04 3.004-.04-2.313 2.028-4.707 3.856-7.305 5.481a37.27 37.27 0 0 1 4.301-5.441Zm0 0" fill="#ff66c4" data-color="3"/>
        <path d="M307.912 112.292h.078c2.52-.082 7.226-3.289 13.883-9.539.773-.73 1.543-1.46 2.273-2.152 3.695-.406 7.348-.61 14.734-2.637 4.625-1.258 7.47-2.52 7.59-2.559a.55.55 0 0 0 .285-.73.602.602 0 0 0-.773-.324c0 .039-2.84 1.258-7.426 2.515-6.293 1.746-9.984 2.153-13.113 2.477a216.898 216.898 0 0 0 5.683-5.887c.325-.406 0-1.136-.609-.933-4.262 1.586-9.21 3.125-10.39 3.004.12-.485 1.421-1.786 2.8-2.758.246-.203.324-.528.121-.813a.529.529 0 0 0-.77-.12c-3.53 2.515-3.491 3.812-3.167 4.382.246.363.812 1.297 9.539-1.785a146.184 146.184 0 0 1-5.031 5.074c-2.153.203-4.18.445-6.82 1.258-3.208.933-10.512 4.219-11.446 7.875-.324 1.62.648 3.531 2.559 3.652Zm14.367-11.488c-5.36 5.113-11.488 10.27-14.328 10.351-1.016 0-1.746-1.257-1.461-2.234 1.015-4.098 11.285-7.832 15.789-8.117Zm0 0" fill="#ff66c4" data-color="3"/>
        <path d="M26.826 158.532h4.375c1.04 0 1.863.226 2.469.672.601.449.906 1.062.906 1.844 0 .574-.164 1.058-.484 1.453-.313.398-.742.664-1.281.797.664.117 1.19.402 1.578.859.382.45.578 1.012.578 1.687 0 .868-.328 1.543-.985 2.032-.648.492-1.543.734-2.687.734h-4.469Zm1.688 1.516v2.656h2.593c.54 0 .961-.117 1.266-.36.313-.238.469-.566.469-.984 0-.426-.153-.75-.453-.969-.305-.226-.73-.343-1.282-.343Zm0 4.156v2.89h2.593c.676 0 1.196-.125 1.563-.375.375-.257.562-.625.562-1.093 0-.438-.187-.782-.562-1.032-.375-.257-.899-.39-1.563-.39Zm0 0" fill="#ada59b" data-color="4"/>
        <path d="M57.067 158.532v5.906c0 1.313-.391 2.352-1.172 3.11-.774.761-1.84 1.14-3.203 1.14-1.368 0-2.438-.379-3.22-1.14-.78-.758-1.171-1.797-1.171-3.11v-5.906h1.703v5.906c0 .844.238 1.512.719 2 .488.48 1.148.719 1.984.719.82 0 1.469-.238 1.938-.719.476-.476.718-1.144.718-2v-5.906Zm0 0" fill="#ada59b" data-color="4"/>
        <path d="M74.329 158.47c1.3 0 2.472.343 3.515 1.03l-.703 1.5c-1.023-.624-2.008-.937-2.953-.937-.512 0-.914.094-1.203.281-.293.18-.438.434-.438.766 0 .336.133.621.407.86.27.242.601.417 1 .53a16.76 16.76 0 0 1 2.625.938c.406.188.738.48 1 .875.257.399.39.883.39 1.453 0 .875-.355 1.578-1.062 2.11-.7.53-1.61.797-2.735.797a5.82 5.82 0 0 1-2.218-.438 6.218 6.218 0 0 1-1.891-1.172l.734-1.453a5.615 5.615 0 0 0 1.672 1.078c.614.25 1.192.375 1.735.375.593 0 1.054-.101 1.39-.312.332-.22.5-.52.5-.907 0-.343-.136-.629-.406-.859a2.452 2.452 0 0 0-1.016-.516c-.398-.113-.828-.25-1.296-.406a17.718 17.718 0 0 1-1.313-.515 2.374 2.374 0 0 1-1.016-.844c-.261-.395-.39-.875-.39-1.438 0-.851.332-1.531 1-2.031.676-.508 1.566-.766 2.672-.766Zm0 0" fill="#ada59b" data-color="4"/>
        <path d="M93.173 168.61h-1.688v-10.078h1.688Zm0 0" fill="#ada59b" data-color="4"/>
        <path d="M116.082 168.61h-1.671l-5.375-7.219v7.219h-1.688v-10.078h1.672l5.39 7.25v-7.25h1.672Zm0 0" fill="#ada59b" data-color="4"/>
        <path d="M137.452 160.063h-5.5v2.719h4.922v1.531h-4.922v2.766h5.672v1.531h-7.36v-10.078h7.188Zm0 0" fill="#ada59b" data-color="4"/>
        <path d="M154.535 158.47c1.3 0 2.472.343 3.515 1.03l-.703 1.5c-1.023-.624-2.008-.937-2.953-.937-.512 0-.914.094-1.203.281-.293.18-.438.434-.438.766 0 .336.133.621.407.86.27.242.601.417 1 .53a16.76 16.76 0 0 1 2.625.938c.406.188.738.48 1 .875.257.399.39.883.39 1.453 0 .875-.355 1.578-1.062 2.11-.7.53-1.61.797-2.735.797a5.82 5.82 0 0 1-2.218-.438 6.218 6.218 0 0 1-1.891-1.172l.734-1.453a5.615 5.615 0 0 0 1.672 1.078c.614.25 1.192.375 1.735.375.593 0 1.054-.101 1.39-.312.332-.22.5-.52.5-.907 0-.343-.136-.629-.406-.859a2.452 2.452 0 0 0-1.016-.516c-.398-.113-.828-.25-1.296-.406a17.718 17.718 0 0 1-1.313-.515 2.374 2.374 0 0 1-1.016-.844c-.261-.395-.39-.875-.39-1.438 0-.851.332-1.531 1-2.031.676-.508 1.566-.766 2.672-.766Zm0 0" fill="#ada59b" data-color="4"/>
        <path d="M175.004 158.47c1.3 0 2.472.343 3.515 1.03l-.703 1.5c-1.023-.624-2.008-.937-2.953-.937-.512 0-.914.094-1.203.281-.293.18-.438.434-.438.766 0 .336.133.621.407.86.27.242.601.417 1 .53a16.76 16.76 0 0 1 2.625.938c.406.188.738.48 1 .875.257.399.39.883.39 1.453 0 .875-.355 1.578-1.062 2.11-.7.53-1.61.797-2.735.797a5.82 5.82 0 0 1-2.218-.438 6.218 6.218 0 0 1-1.891-1.172l.734-1.453a5.615 5.615 0 0 0 1.672 1.078c.614.25 1.192.375 1.735.375.593 0 1.054-.101 1.39-.312.332-.22.5-.52.5-.907 0-.343-.136-.629-.406-.859a2.452 2.452 0 0 0-1.016-.516c-.398-.113-.828-.25-1.297-.406a17.718 17.718 0 0 1-1.312-.515 2.374 2.374 0 0 1-1.016-.844c-.261-.395-.39-.875-.39-1.438 0-.851.332-1.531 1-2.031.676-.508 1.566-.766 2.672-.766Zm0 0" fill="#ada59b" data-color="4"/>
        <path d="M213.89 166.329h-5.078l-.969 2.281h-1.765l4.453-10.078h1.734l4.406 10.078h-1.812Zm-.64-1.5-1.907-4.485-1.906 4.485Zm0 0" fill="#ada59b" data-color="4"/>
        <path d="M233.981 158.5a5.59 5.59 0 0 1 2.078.407 5.242 5.242 0 0 1 1.75 1.14l-.984 1.235a4.09 4.09 0 0 0-1.297-.938 3.656 3.656 0 0 0-1.516-.343c-1.011 0-1.867.343-2.562 1.03-.688.688-1.031 1.528-1.031 2.517 0 1 .343 1.843 1.031 2.53.695.68 1.55 1.016 2.563 1.016 1.039 0 1.976-.394 2.812-1.187l1 1.125a6.015 6.015 0 0 1-1.813 1.219 5.267 5.267 0 0 1-2.078.437c-1.48 0-2.726-.488-3.734-1.469-1.012-.988-1.516-2.207-1.516-3.656 0-1.437.508-2.64 1.532-3.61 1.02-.968 2.273-1.452 3.765-1.452Zm0 0" fill="#ada59b" data-color="4"/>
        <path d="M257.576 166.329h-5.078l-.969 2.281h-1.765l4.453-10.078h1.734l4.406 10.078h-1.812Zm-.64-1.5-1.907-4.485-1.906 4.485Zm0 0" fill="#ada59b" data-color="4"/>
        <path d="M273.214 158.532h4.125c1.508 0 2.754.48 3.735 1.437.976.95 1.468 2.153 1.468 3.61 0 1.46-.496 2.664-1.484 3.61-.98.948-2.234 1.421-3.766 1.421h-4.078Zm1.688 1.531v7.016h2.484c.988 0 1.813-.328 2.469-.985.656-.656.984-1.488.984-2.5 0-1.02-.34-1.863-1.015-2.53-.68-.665-1.516-1-2.516-1Zm0 0" fill="#ada59b" data-color="4"/>
        <path d="M303.073 160.063h-5.5v2.719h4.922v1.531h-4.922v2.766h5.672v1.531h-7.36v-10.078h7.188Zm0 0" fill="#ada59b" data-color="4"/>
        <path d="M327.484 168.61h-1.563l-.015-7.531-3.188 6.484h-1.094l-3.187-6.484v7.531h-1.594v-10.078h2.016l3.312 6.703 3.313-6.703h2Zm0 0" fill="#ada59b" data-color="4"/>
        <path d="M345.797 165.25v3.36h-1.687v-3.297l-3.75-6.781h1.718l2.875 4.906 2.813-4.906h1.734Zm0 0" fill="#ada59b" data-color="4"/>
    </g>
</svg>
